<?xml version="1.0" encoding="UTF-8"?>
<svg id="Layer_2" data-name="Layer 2" xmlns="http://www.w3.org/2000/svg" xmlns:xlink="http://www.w3.org/1999/xlink" viewBox="0 0 1195.73 184.76">
  <defs>
    <style>
      .cls-1 {
        clip-path: url(#clippath);
      }
    </style>
    <clipPath id="clippath">
      <path d="M24.14,37.61c-.73.46-1.64.49-2.4.08L0,25.8v24.44c0,1.69.94,3.24,2.45,4.01l20.52,10.56,60.46-36.41V0L24.14,37.61Z"/>
    </clipPath>
  </defs>
  <g id="Layer_1-2" data-name="Layer 1">
    <g>
      <g>
        <path d="M83.43,28.4v27.91c22.35,0,40.53,18.18,40.53,40.53s-18.18,40.53-40.53,40.53-40.53-18.18-40.53-40.53c0-6.69,1.64-13.01,4.53-18.58l-24.46-13.45c-5.09,9.56-7.98,20.46-7.98,32.03,0,37.74,30.7,68.44,68.44,68.44s68.44-30.7,68.44-68.44S121.16,28.4,83.43,28.4"/>
        <g>
          <path d="M24.14,37.61c-.73.46-1.64.49-2.4.08L0,25.8v24.44c0,1.69.94,3.24,2.45,4.01l20.52,10.56,60.46-36.41V0L24.14,37.61Z"/>
          <g class="cls-1">
            <rect width="83.43" height="64.81"/>
          </g>
        </g>
      </g>
      <g>
        <path d="M343.13,97.39c0,34.53-28.85,59.98-68.25,59.98s-68.25-25.45-68.25-59.98,28.85-59.98,68.25-59.98,68.25,25.45,68.25,59.98M227.87,97.39c0,24.8,18.97,41.66,47.01,41.66s47.01-16.86,47.01-41.66-18.97-41.66-47.01-41.66-47.01,16.86-47.01,41.66"/>
        <path d="M374.4,184.76h-19.45v-114.28h19.45v10.86c6.16-6.65,17.51-12.48,33.07-12.48,29.34,0,46.69,20.1,46.69,44.25s-17.35,44.25-46.69,44.25c-15.56,0-26.91-5.83-33.07-12.48v39.88ZM373.43,113.76c0,15.56,13.62,27.4,31.29,27.4,16.7,0,30.96-10.05,30.96-28.04s-14.26-28.04-30.96-28.04c-17.67,0-31.29,11.83-31.29,27.4v1.3Z"/>
        <path d="M539.42,123.32l15.56,8.27c-5.19,13.29-21.24,25.77-44.09,25.77-28.37,0-49.12-17.99-49.12-44.25s20.1-44.25,49.12-44.25,45.71,18.64,45.71,43.12v6.81h-76.35c2.59,13.62,14.75,22.05,30.64,22.05,14.1,0,24.48-7.13,28.53-17.51M481.06,104.19h56.74c-1.3-8.92-11.83-19.13-27.88-19.13-13.45,0-25.13,6.65-28.85,19.13"/>
        <path d="M568.43,70.48h19.45v11.19c6-6.97,16.7-12.81,31.45-12.81,23.67,0,36.96,16.53,36.96,40.36v46.36h-19.45v-43.12c0-15.07-7.78-25.77-23.51-25.77-16.53,0-25.45,10.37-25.45,26.1v42.79h-19.45v-85.1Z"/>
        <path d="M744.63,39.19l59.17,116.39h-22.05l-14.75-29.18h-67.6l-14.75,29.18h-22.21l59.33-116.39h22.86ZM708.64,108.25h49.28l-24.64-48.63-24.64,48.63Z"/>
        <path d="M814.48,125.11c8.75,11.35,20.75,16.21,35.82,16.21,13.45,0,22.53-3.08,22.53-10.37s-7.3-7.62-27.56-10.05c-22.21-2.76-39.07-6.49-39.07-24.48,0-16.05,15.56-27.56,40.2-27.56,20.43,0,36.31,7.78,43.61,17.51l-12.48,12c-6.32-8.43-17.83-13.46-31.93-13.46s-20.75,3.89-20.75,9.73,6.32,6.81,24.96,9.08c22.86,2.76,42.15,5.51,42.15,25.29s-19.94,28.37-41.5,28.37-40.36-7.13-49.77-19.78l13.78-12.48Z"/>
        <path d="M908.34,125.11c8.75,11.35,20.75,16.21,35.82,16.21,13.45,0,22.53-3.08,22.53-10.37s-7.3-7.62-27.56-10.05c-22.21-2.76-39.07-6.49-39.07-24.48,0-16.05,15.56-27.56,40.2-27.56,20.43,0,36.31,7.78,43.61,17.51l-12.48,12c-6.32-8.43-17.83-13.46-31.93-13.46s-20.75,3.89-20.75,9.73,6.32,6.81,24.96,9.08c22.86,2.76,42.15,5.51,42.15,25.29s-19.94,28.37-41.5,28.37-40.36-7.13-49.77-19.78l13.78-12.48Z"/>
        <path d="M995.71,39.19h20.1v19.94h-20.1v-19.94ZM1015.48,155.58h-19.45v-85.1h19.45v85.1Z"/>
        <path d="M1036.39,125.11c8.75,11.35,20.75,16.21,35.82,16.21,13.45,0,22.53-3.08,22.53-10.37s-7.3-7.62-27.56-10.05c-22.21-2.76-39.07-6.49-39.07-24.48,0-16.05,15.56-27.56,40.2-27.56,20.43,0,36.31,7.78,43.61,17.51l-12.48,12c-6.32-8.43-17.83-13.46-31.93-13.46s-20.75,3.89-20.75,9.73,6.32,6.81,24.96,9.08c22.86,2.76,42.15,5.51,42.15,25.29s-19.94,28.37-41.5,28.37-40.36-7.13-49.77-19.78l13.78-12.48Z"/>
        <path d="M1135.92,87.01h-21.4v-16.53h21.4v-24.97h19.13v24.97h37.45v16.53h-37.45v37.61c0,11.02,6,14.43,18.8,14.43,7.13,0,12.97-1.78,18.64-3.57l3.24,16.53c-6.32,2.43-16.7,4.54-25.29,4.54-18.16,0-34.53-7.29-34.53-30.15v-39.39Z"/>
      </g>
    </g>
  </g>
</svg>
